<?xml version="1.0" encoding="UTF-8"?>
<svg width="118px" height="30px" viewBox="0 0 118 30" version="1.1" xmlns="http://www.w3.org/2000/svg" xmlns:xlink="http://www.w3.org/1999/xlink">
    <!-- Generator: Sketch 58 (84663) - https://sketch.com -->
    <title>logo</title>
    <desc>Created with Sketch.</desc>
    <g id="Symbols" stroke="none" stroke-width="1" fill="none" fill-rule="evenodd">
        <g id="sidebar" transform="translate(-20.000000, -22.000000)" fill="#FE000C">
            <g id="logo">
                <g transform="translate(20.000000, 22.000000)">
                    <g id="Group-17">
                        <path d="M21.2514356,1.36072665 L21.5634835,1.50811139 L19.0181165,4.05347848 C14.8873063,2.53980759 10.0718886,3.44026329 6.75639494,6.75583291 C2.67256231,10.8396655 2.25263318,17.1990706 5.4951714,21.7517852 L5.68262278,22.0075291 L8.07836962,19.6117823 C5.92011646,16.3803646 6.26682532,11.9713519 9.11940759,9.11884557 C11.9023406,6.33583847 16.1667787,5.93795776 19.3738372,7.92435713 L19.6123443,8.07780759 L19.9765975,7.71355443 L22.0080911,5.68206076 L24.3891797,3.30097215 C24.8095595,3.63925063 25.2164203,4.00259241 25.6065722,4.39282025 C31.4644709,10.250719 31.4644709,19.7481873 25.6065722,25.6060861 C21.0478267,30.1648315 14.2849886,31.1749775 8.74852293,28.6381756 L8.43647089,28.4907949 L10.981838,25.9454278 C15.1126481,27.4590987 19.9280658,26.5585671 23.2436354,23.2430734 C27.3274681,19.1592408 27.747324,12.7997626 24.5047831,8.24711702 L24.3173316,7.99137722 L16.1635595,16.1451494 L12.8139646,19.4947443 C14.5959996,20.357646 16.7857991,20.0958425 18.318998,18.7070384 L18.499762,18.5349722 L18.5260405,18.5076304 L18.5265722,18.508162 L23.2288253,13.8059089 C23.5904962,16.312162 22.8089772,18.9516304 20.8806228,20.8800608 C18.0976898,23.6630679 13.8331794,24.0609486 10.6261174,22.0745492 L10.3876101,21.9210987 L10.0949772,22.2137316 L9.98758481,22.3211241 L7.99193924,24.3167696 L5.61077468,26.6979342 C5.19039494,26.3596557 4.78361013,25.996238 4.39338228,25.6060861 C-1.46444051,19.7481873 -1.46444051,10.250719 4.39338228,4.39282025 C8.95220225,-0.165925176 15.7150417,-1.17614432 21.2514356,1.36072665 Z M41.7026203,10.6320759 C43.5121899,10.6320759 45.1207215,11.4363797 46.059,13.0225823 L43.1994304,14.5639747 C42.8866709,13.9831139 42.4398608,13.581038 41.7026203,13.581038 C41.1218354,13.581038 40.7643418,13.804481 40.7643418,14.206557 C40.7643418,15.48 46.260038,14.630962 46.260038,18.7638987 C46.260038,21.3331139 44.0259873,22.4277722 41.6132278,22.4277722 C39.3792532,22.4277722 37.6814051,21.5788101 36.8101139,19.7692405 L39.7143418,18.1161266 C40.0047722,18.9650127 40.6302911,19.4341519 41.6132278,19.4341519 C42.4175316,19.4341519 42.8196835,19.1884557 42.8196835,18.7416456 C42.8196835,17.5128608 37.3239114,18.1607848 37.3239114,14.2958734 C37.3239114,11.8608608 39.3792532,10.6320759 41.7026203,10.6320759 Z M55.6694354,10.6320759 C58.931157,10.6320759 61.3438405,13.156481 61.3438405,16.5299241 C61.3438405,16.9991392 61.2991823,17.4458734 61.2097899,17.8702785 L53.2790051,17.8702785 C53.7034101,19.032 54.731157,19.4341519 55.9598658,19.4341519 C56.8758152,19.4341519 57.657638,19.0767342 58.1045241,18.5851899 L60.7853089,20.1267342 C59.6906506,21.6458734 58.0374608,22.4277722 55.9152076,22.4277722 C52.0949544,22.4277722 49.7269291,19.8587089 49.7269291,16.5299241 C49.7269291,13.2012152 52.1396886,10.6320759 55.6694354,10.6320759 Z M83.4257165,10.6320759 C85.2352861,10.6320759 86.8437418,11.4363797 87.7820962,13.0225823 L84.9225266,14.5639747 C84.6097671,13.9831139 84.162957,13.581038 83.4257165,13.581038 C82.8448557,13.581038 82.487438,13.804481 82.487438,14.206557 C82.487438,15.48 87.9831342,14.630962 87.9831342,18.7638987 C87.9831342,21.3331139 85.7490835,22.4277722 83.3363241,22.4277722 C81.1023494,22.4277722 79.4044253,21.5788101 78.5332101,19.7692405 L81.437438,18.1161266 C81.7278684,18.9650127 82.3533873,19.4341519 83.3363241,19.4341519 C84.1406278,19.4341519 84.5427038,19.1884557 84.5427038,18.7416456 C84.5427038,17.5128608 79.0470076,18.1607848 79.0470076,14.2958734 C79.0470076,11.8608608 81.1023494,10.6320759 83.4257165,10.6320759 Z M93.1772127,19.0537823 C94.1006051,19.0537823 94.8642,19.8173772 94.8642,20.7407696 C94.8642,21.664162 94.1006051,22.427757 93.1772127,22.427757 C92.2538203,22.427757 91.4902253,21.664162 91.4902253,20.7407696 C91.4902253,19.8173772 92.2538203,19.0537823 93.1772127,19.0537823 Z M103.647775,10.6320684 C105.144585,10.6320684 106.239243,11.1458658 106.976484,11.9949038 L106.976484,10.9449038 L110.327522,10.9449038 L110.327522,22.1150051 L106.976484,22.1150051 L106.976484,21.0649291 C106.239243,21.9138911 105.144585,22.4277646 103.647775,22.4277646 C100.721218,22.4277646 98.3084582,19.8587013 98.3084582,16.5299165 C98.3084582,13.2012076 100.721218,10.6320684 103.647775,10.6320684 Z M71.1269544,10.6320228 C73.3833342,10.6320228 75.3045494,12.2406304 75.3045494,15.2565797 L75.3045494,22.1149595 L71.9535114,22.1149595 L71.9535114,15.7480481 C71.9535114,14.3629595 71.0822962,13.7150354 70.0099671,13.7150354 C68.7811823,13.7150354 67.9322962,14.4299468 67.9322962,16.0160734 L67.9322962,22.1149595 L64.5812582,22.1149595 L64.5812582,10.9448582 L67.9322962,10.9448582 L67.9322962,11.9948582 C68.5354861,11.1683013 69.6525494,10.6320228 71.1269544,10.6320228 Z M117.106557,10.9449114 L117.106557,22.1150127 L113.755519,22.1150127 L113.755519,10.9449114 L117.106557,10.9449114 Z M104.318028,13.8044734 C102.776484,13.8044734 101.659496,14.8543975 101.659496,16.5299165 C101.659496,18.2054354 102.776484,19.2554354 104.318028,19.2554354 C105.85942,19.2554354 106.976484,18.2054354 106.976484,16.5299165 C106.976484,14.8543975 105.85942,13.8044734 104.318028,13.8044734 Z M11.4644962,11.4997063 C9.98552833,12.9786742 9.63358279,15.156747 10.4065665,16.9696948 L10.5047241,17.1854278 L17.1502177,10.5399342 C15.2969013,9.64251646 13.0026228,9.96157975 11.4644962,11.4997063 Z M55.6471063,13.6032911 C54.3737392,13.6032911 53.5247013,14.2288861 53.2120177,15.3682785 L58.0151316,15.3682785 C57.657638,14.0725063 56.6523722,13.6032911 55.6471063,13.6032911 Z M115.356608,6.31959494 C116.285468,6.31959494 117.062658,7.09686076 117.062658,8.02572152 C117.062658,8.95465823 116.285468,9.7318481 115.356608,9.7318481 C114.427671,9.7318481 113.650405,8.95465823 113.650405,8.02572152 C113.650405,7.09686076 114.427671,6.31959494 115.356608,6.31959494 Z" id="Combined-Shape"></path>
                    </g>
                </g>
            </g>
        </g>
    </g>
</svg>