<?xml version="1.0" encoding="UTF-8"?>
<svg width="16px" height="16px" viewBox="0 0 16 16" version="1.1" xmlns="http://www.w3.org/2000/svg" xmlns:xlink="http://www.w3.org/1999/xlink">
    <!-- Generator: Sketch 54.1 (76490) - https://sketchapp.com -->
    <title>Icon/All/edit Copy</title>
    <desc>Created with Sketch.</desc>
    <g id="Symbols" stroke="none" stroke-width="1" fill="none" fill-rule="evenodd" stroke-linecap="round">
        <g id="table/row/icon" transform="translate(-10.000000, -12.000000)" stroke="#5A5A5A">
            <g id="Icon/All/add-bookmark" transform="translate(10.000000, 12.000000)">
                <path d="M12.2988506,10.2758621 C13.9747491,10.2758621 15.3333333,8.91727786 15.3333333,7.24137931 C15.3333333,5.56548076 13.9747491,4.20689655 12.2988506,4.20689655 C10.622952,4.20689655 9.26436782,5.56548076 9.26436782,7.24137931 C9.26436782,8.91727786 10.622952,10.2758621 12.2988506,10.2758621 Z M11.2873563,7.24137931 L13.3103448,7.24137931 M12.2988506,8.25287356 L12.2988506,6.22988506 M12.2988506,11.7931034 L12.2988506,15.0804598 L6.48275862,11.7931034 L0.666666667,15.0804598 L0.666666667,1.93103448 C0.666666667,1.23274342 1.23274342,0.666666667 1.93103448,0.666666667 L11.0344828,0.666666667 C11.7327738,0.666666667 12.2988506,1.23274342 12.2988506,1.93103448 L12.2988506,2.68965517" id="Combined-Shape"></path>
            </g>
        </g>
    </g>
</svg>