<?xml version="1.0" encoding="UTF-8"?>
<svg width="32px" height="32px" viewBox="0 0 32 32" version="1.1" xmlns="http://www.w3.org/2000/svg" xmlns:xlink="http://www.w3.org/1999/xlink">
    <!-- Generator: Sketch 54.1 (76490) - https://sketchapp.com -->
    <title>Shape</title>
    <desc>Created with Sketch.</desc>
    <g id="Locations" stroke="none" stroke-width="1" fill="none" fill-rule="evenodd">
        <g id="Locations-Livestrean" transform="translate(-319.000000, -722.000000)" fill="#FFFFFF" fill-rule="nonzero">
            <g id="Group-3" transform="translate(299.000000, 268.000000)">
                <g id="bar" transform="translate(0.000000, 435.000000)">
                    <g id="ic_pause_circle_outline_48px" transform="translate(20.000000, 19.000000)">
                        <path d="M11.2,22.4 L14.4,22.4 L14.4,9.6 L11.2,9.6 L11.2,22.4 Z M16,0 C7.16,0 0,7.16 0,16 C0,24.84 7.16,32 16,32 C24.84,32 32,24.84 32,16 C32,7.16 24.84,0 16,0 Z M16,28.8 C8.944,28.8 3.2,23.056 3.2,16 C3.2,8.944 8.944,3.2 16,3.2 C23.056,3.2 28.8,8.944 28.8,16 C28.8,23.056 23.056,28.8 16,28.8 Z M17.6,22.4 L20.8,22.4 L20.8,9.6 L17.6,9.6 L17.6,22.4 Z" id="Shape"></path>
                    </g>
                </g>
            </g>
        </g>
    </g>
</svg>