<?xml version="1.0" encoding="UTF-8"?>
<svg width="50px" height="50px" viewBox="0 0 50 50" version="1.1" xmlns="http://www.w3.org/2000/svg" xmlns:xlink="http://www.w3.org/1999/xlink">
    <!-- Generator: Sketch 54.1 (76490) - https://sketchapp.com -->
    <title>Group 2</title>
    <desc>Created with Sketch.</desc>
    <g id="Locations" stroke="none" stroke-width="1" fill="none" fill-rule="evenodd">
        <g id="Locations-Analytics" transform="translate(-871.000000, -237.000000)">
            <g id="Picture-Copy-2" transform="translate(856.000000, 217.000000)">
                <g id="Group-2" transform="translate(15.000000, 20.000000)">
                    <circle id="Oval" fill="#0C479D" opacity="0.1" cx="25" cy="25" r="25"></circle>
                    <g id="Icon/All/uploaded" transform="translate(14.000000, 14.000000)" stroke="#0C479D" stroke-linecap="round" stroke-width="2">
                        <path d="M11,17.4166667 L11,10.0833333 M8.25,12.8333333 L11,10.0833333 L13.75,12.8333333 M14.6666667,18.3333333 L17.4166667,18.3333333 C19.4333333,18.3333333 21.0833333,16.6833333 21.0833333,14.6666667 C21.0833333,12.65 19.4333333,11 17.4166667,11 C17.4166667,11 17.4166667,11 17.3708333,11 C17.1416667,7.425 14.1625,4.58333333 10.5416667,4.58333333 C6.875,4.58333333 3.85,7.47083333 3.66666667,11.1375 C2.0625,11.55 0.916666667,12.9708333 0.916666667,14.6666667 C0.916666667,16.6833333 2.56666667,18.3333333 4.58333333,18.3333333 L7.33333333,18.3333333" id="Combined-Shape"></path>
                    </g>
                </g>
            </g>
        </g>
    </g>
</svg>