<?xml version="1.0" encoding="UTF-8"?>
<svg width="16px" height="16px" viewBox="0 0 16 16" version="1.1" xmlns="http://www.w3.org/2000/svg" xmlns:xlink="http://www.w3.org/1999/xlink">
    <!-- Generator: Sketch 54.1 (76490) - https://sketchapp.com -->
    <title>Icon/All/edit Copy</title>
    <desc>Created with Sketch.</desc>
    <g id="Symbols" stroke="none" stroke-width="1" fill="none" fill-rule="evenodd" stroke-linecap="round">
        <g id="table/row/icon" transform="translate(-10.000000, -12.000000)" stroke="#FE000C">
            <g id="Icon/All/pictures" transform="translate(10.000000, 12.000000)">
                <path d="M2.66666667,0.666666667 L13.3333333,0.666666667 C14.4379028,0.666666667 15.3333333,1.56209717 15.3333333,2.66666667 L15.3333333,13.3333333 C15.3333333,14.4379028 14.4379028,15.3333333 13.3333333,15.3333333 L2.66666667,15.3333333 C1.56209717,15.3333333 0.666666667,14.4379028 0.666666667,13.3333333 L0.666666667,2.66666667 C0.666666667,1.56209717 1.56209717,0.666666667 2.66666667,0.666666667 Z M2.86666667,12.7666667 L5.06666667,8.73333333 L6.9,10.5666667 L9.83333333,6.53333333 L13.1333333,12.7666667 L2.86666667,12.7666667 L2.86666667,12.7666667 Z M5.8,5.8 C6.61001763,5.8 7.26666667,5.14335097 7.26666667,4.33333333 C7.26666667,3.5233157 6.61001763,2.86666667 5.8,2.86666667 C4.98998237,2.86666667 4.33333333,3.5233157 4.33333333,4.33333333 C4.33333333,5.14335097 4.98998237,5.8 5.8,5.8 Z" id="Combined-Shape"></path>
            </g>
        </g>
    </g>
</svg>