<?xml version="1.0" encoding="UTF-8"?>
<svg width="50px" height="50px" viewBox="0 0 50 50" version="1.1" xmlns="http://www.w3.org/2000/svg" xmlns:xlink="http://www.w3.org/1999/xlink">
    <!-- Generator: Sketch 54.1 (76490) - https://sketchapp.com -->
    <title>Group 2</title>
    <desc>Created with Sketch.</desc>
    <g id="Locations" stroke="none" stroke-width="1" fill="none" fill-rule="evenodd">
        <g id="Locations-camera" transform="translate(-1148.000000, -232.000000)">
            <g id="Picture-Copy" transform="translate(1133.000000, 212.000000)">
                <g id="Group-2" transform="translate(15.000000, 20.000000)">
                    <circle id="Oval" fill-opacity="0.1" fill="#01A14D" cx="25" cy="25" r="25"></circle>
                    <g id="Icon/All/camera" transform="translate(14.000000, 14.000000)" stroke="#01A14D" stroke-linecap="round">
                        <path d="M2.75,19.7083333 L19.25,19.7083333 C20.262522,19.7083333 21.0833333,18.887522 21.0833333,17.875 L21.0833333,6.875 C21.0833333,5.86247796 20.262522,5.04166667 19.25,5.04166667 L16.0416667,5.04166667 L14.2083333,1.83333333 L8.70833333,1.83333333 L6.875,5.04166667 L2.75,5.04166667 C1.73747796,5.04166667 0.916666667,5.86247796 0.916666667,6.875 L0.916666667,17.875 C0.916666667,18.887522 1.73747796,19.7083333 2.75,19.7083333 Z M11.4583333,16.9583333 C13.9896384,16.9583333 16.0416667,14.9063051 16.0416667,12.375 C16.0416667,9.8436949 13.9896384,7.79166667 11.4583333,7.79166667 C8.92702823,7.79166667 6.875,9.8436949 6.875,12.375 C6.875,14.9063051 8.92702823,16.9583333 11.4583333,16.9583333 Z M4.125,8.70833333 C4.37813051,8.70833333 4.58333333,8.50313051 4.58333333,8.25 C4.58333333,7.99686949 4.37813051,7.79166667 4.125,7.79166667 C3.87186949,7.79166667 3.66666667,7.99686949 3.66666667,8.25 C3.66666667,8.50313051 3.87186949,8.70833333 4.125,8.70833333 Z" id="Combined-Shape"></path>
                    </g>
                </g>
            </g>
        </g>
    </g>
</svg>