<?xml version="1.0" encoding="UTF-8"?>
<svg width="4px" height="16px" viewBox="0 0 4 16" version="1.1" xmlns="http://www.w3.org/2000/svg" xmlns:xlink="http://www.w3.org/1999/xlink">
    <!-- Generator: Sketch 54.1 (76490) - https://sketchapp.com -->
    <title>Icon/All/edit Copy 2</title>
    <desc>Created with Sketch.</desc>
    <g id="Symbols" stroke="none" stroke-width="1" fill="none" fill-rule="evenodd" stroke-linecap="round">
        <g id="table/row/icon" transform="translate(-82.000000, -12.000000)" stroke="#5A5A5A">
            <g id="Icon/All/more" transform="translate(76.000000, 12.000000)">
                <path d="M8,4 C7.26362033,4 6.66666667,3.40304633 6.66666667,2.66666667 C6.66666667,1.930287 7.26362033,1.33333333 8,1.33333333 C8.73637967,1.33333333 9.33333333,1.930287 9.33333333,2.66666667 C9.33333333,3.40304633 8.73637967,4 8,4 Z M8,9.33333333 C7.26362033,9.33333333 6.66666667,8.73637967 6.66666667,8 C6.66666667,7.26362033 7.26362033,6.66666667 8,6.66666667 C8.73637967,6.66666667 9.33333333,7.26362033 9.33333333,8 C9.33333333,8.73637967 8.73637967,9.33333333 8,9.33333333 Z M8,14.6666667 C7.26362033,14.6666667 6.66666667,14.069713 6.66666667,13.3333333 C6.66666667,12.5969537 7.26362033,12 8,12 C8.73637967,12 9.33333333,12.5969537 9.33333333,13.3333333 C9.33333333,14.069713 8.73637967,14.6666667 8,14.6666667 Z" id="Combined-Shape"></path>
            </g>
        </g>
    </g>
</svg>