<?xml version="1.0" encoding="UTF-8"?>
<svg width="16px" height="16px" viewBox="0 0 16 16" version="1.1" xmlns="http://www.w3.org/2000/svg" xmlns:xlink="http://www.w3.org/1999/xlink">
    <!-- Generator: Sketch 54.1 (76490) - https://sketchapp.com -->
    <title>Icon/All/profile</title>
    <desc>Created with Sketch.</desc>
    <g id="Dashboard" stroke="none" stroke-width="1" fill="none" fill-rule="evenodd" stroke-linecap="round">
        <g id="Dashboard2_expanded" transform="translate(-1245.000000, -118.000000)" stroke="#FE000C">
            <g id="Profile" transform="translate(1225.000000, 62.000000)">
                <g id="Profile-Copy" transform="translate(20.000000, 56.000000)">
                    <g id="Icon/All/settings">
                        <path d="M8,10.2 C9.21502645,10.2 10.2,9.21502645 10.2,8 C10.2,6.78497355 9.21502645,5.8 8,5.8 C6.78497355,5.8 5.8,6.78497355 5.8,8 C5.8,9.21502645 6.78497355,10.2 8,10.2 Z M15.3333333,8 L15.3333333,8 C15.3333663,7.43476331 14.9000296,6.96390686 14.3367333,6.91711111 L13.2000667,6.82202222 C13.0664259,6.23210188 12.8327849,5.66941237 12.5092667,5.15833333 L13.2482222,4.28444444 C13.613429,3.85309613 13.5869643,3.21379873 13.1873556,2.81411111 L13.1873556,2.81411111 C12.7876175,2.41461732 12.1484113,2.38815641 11.7170222,2.75324444 L10.8436222,3.4922 C10.3321615,3.1676275 9.76875798,2.93330325 9.17797778,2.79944444 L9.08288889,1.66277778 C9.0358532,1.09967488 8.56506391,0.6666125 8,0.666666667 L8,0.666666667 C7.43476331,0.66663367 6.96390686,1.09997041 6.91711111,1.66326667 L6.82202222,2.79993333 C6.23210188,2.93357407 5.66941237,3.16721506 5.15833333,3.49073333 L4.28444444,2.75324444 C3.85299307,2.38822186 3.21378406,2.41478915 2.81411111,2.81435556 L2.81411111,2.81435556 C2.41461732,3.2140936 2.38815641,3.85329983 2.75324444,4.28468889 L3.4922,5.15808889 C3.16784581,5.66904617 2.93353048,6.23184944 2.79944444,6.82202222 L1.66155556,6.91711111 C1.09893609,6.964746 0.666559129,7.43536761 0.666666667,8 L0.666666667,8 C0.66663367,8.56523669 1.09997041,9.03609314 1.66326667,9.08288889 L2.80164444,9.17797778 C2.93517462,9.7679333 3.1688232,10.3306411 3.49244444,10.8416667 L2.75324444,11.7155556 C2.38822186,12.1470069 2.41478915,12.7862159 2.81435556,13.1858889 L2.81435556,13.1858889 C3.2140936,13.5853827 3.85329983,13.6118436 4.28468889,13.2467556 L5.15808889,12.5078 C5.66904617,12.8321542 6.23184944,13.0664695 6.82202222,13.2005556 L6.91711111,14.3389333 C6.96498543,14.9013594 7.43554006,15.3334624 8,15.3333333 L8,15.3333333 C8.56523669,15.3333663 9.03609314,14.9000296 9.08288889,14.3367333 L9.17797778,13.1983556 C9.7679333,13.0648254 10.3306411,12.8311768 10.8416667,12.5075556 L11.7155556,13.2467556 C12.1470069,13.6117781 12.7862159,13.5852108 13.1858889,13.1856444 L13.1858889,13.1856444 C13.5853827,12.7859064 13.6118436,12.1467002 13.2467556,11.7153111 L12.5078,10.8419111 C12.8321542,10.3309538 13.0664695,9.76815056 13.2005556,9.17797778 L14.3389333,9.08288889 C14.9013594,9.03501457 15.3334624,8.56445994 15.3333333,8 Z" id="Combined-Shape"></path>
                    </g>
                </g>
            </g>
        </g>
    </g>
</svg>